<svg width="150.617432" height="14.477539" viewBox="0 0 150.617 14.4775" fill="none" xmlns="http://www.w3.org/2000/svg" xmlns:xlink="http://www.w3.org/1999/xlink">
	<desc>
			Created with Pixso.
	</desc>
	<defs/>
	<path id="CRYPTOFOLIO" d="M4.25 13.81Q5.76 14.47 7.57 14.47Q9.39 14.47 10.87 13.83Q11.75 13.45 12.46 12.87Q12.95 12.47 13.35 11.97L11.27 10.05Q10.48 10.98 9.48 11.39Q8.68 11.71 7.75 11.71Q6.59 11.71 5.65 11.26Q5.54 11.2 5.43 11.14Q4.91 10.85 4.51 10.44Q4.12 10.05 3.84 9.56Q3.79 9.46 3.74 9.37Q3.27 8.42 3.27 7.23Q3.27 6.07 3.73 5.13Q3.78 5.02 3.84 4.91Q4.13 4.39 4.54 3.99Q4.93 3.6 5.43 3.33Q5.54 3.27 5.65 3.21Q6.59 2.75 7.75 2.75Q8.7 2.75 9.51 3.09Q10.5 3.5 11.27 4.39L13.35 2.48Q12.97 2.01 12.52 1.64Q11.79 1.03 10.88 0.63Q9.41 0 7.59 0Q5.71 0 4.15 0.71Q3.92 0.81 3.7 0.93Q2.72 1.45 1.98 2.21Q1.41 2.79 0.98 3.51Q0.76 3.87 0.59 4.26Q0 5.61 0 7.23Q0 8.84 0.58 10.19Q0.76 10.59 0.98 10.96Q1.41 11.67 1.97 12.24Q2.71 13.01 3.7 13.54Q3.97 13.69 4.25 13.81ZM73.65 13.74Q75.24 14.47 77.17 14.47Q79.11 14.47 80.7 13.73Q80.9 13.64 81.08 13.54Q82.13 12.97 82.9 12.15Q83.42 11.6 83.82 10.94Q84.1 10.48 84.3 9.99Q84.82 8.72 84.82 7.23Q84.82 5.76 84.31 4.5Q84.11 4 83.82 3.53Q83.42 2.86 82.89 2.3Q82.12 1.49 81.08 0.94Q80.88 0.83 80.68 0.73Q79.09 0 77.17 0Q75.26 0 73.68 0.72Q73.45 0.82 73.23 0.94Q72.17 1.51 71.39 2.33Q70.88 2.87 70.49 3.53Q70.23 3.97 70.03 4.44Q69.51 5.73 69.51 7.23Q69.51 8.76 70.05 10.06Q70.24 10.51 70.49 10.94Q70.88 11.59 71.38 12.12Q72.16 12.96 73.23 13.54Q73.44 13.65 73.65 13.74ZM103.47 13.74Q105.06 14.47 106.99 14.47Q108.93 14.47 110.52 13.73Q110.72 13.64 110.9 13.54Q111.95 12.97 112.72 12.15Q113.24 11.6 113.64 10.94Q113.92 10.48 114.12 9.99Q114.64 8.72 114.64 7.23Q114.64 5.76 114.13 4.5Q113.93 4 113.64 3.53Q113.24 2.86 112.71 2.3Q111.94 1.49 110.9 0.94Q110.7 0.83 110.5 0.73Q108.91 0 106.99 0Q105.08 0 103.5 0.72Q103.27 0.82 103.05 0.94Q101.99 1.51 101.21 2.33Q100.7 2.87 100.31 3.53Q100.05 3.97 99.85 4.44Q99.33 5.73 99.33 7.23Q99.33 8.76 99.87 10.06Q100.06 10.51 100.31 10.94Q100.7 11.59 101.2 12.12Q101.98 12.96 103.05 13.54Q103.26 13.65 103.47 13.74ZM139.44 13.74Q141.03 14.47 142.96 14.47Q144.9 14.47 146.49 13.73Q146.69 13.64 146.87 13.54Q147.92 12.97 148.69 12.15Q149.21 11.6 149.61 10.94Q149.89 10.48 150.09 9.99Q150.61 8.72 150.61 7.23Q150.61 5.76 150.1 4.5Q149.9 4 149.61 3.53Q149.21 2.86 148.68 2.3Q147.91 1.49 146.87 0.94Q146.67 0.83 146.47 0.73Q144.88 0 142.96 0Q141.05 0 139.47 0.72Q139.24 0.82 139.02 0.94Q137.96 1.51 137.18 2.33Q136.67 2.87 136.28 3.53Q136.02 3.97 135.82 4.44Q135.3 5.73 135.3 7.23Q135.3 8.76 135.84 10.06Q136.03 10.51 136.28 10.94Q136.67 11.59 137.17 12.12Q137.95 12.96 139.02 13.54Q139.23 13.65 139.44 13.74ZM21.9 10.33L24.6 14.23L28.08 14.23L24.94 9.73Q26.07 9.25 26.77 8.4Q26.93 8.21 27.07 8.01Q27.15 7.89 27.22 7.77Q27.82 6.71 27.82 5.31Q27.82 3.91 27.22 2.85Q27.16 2.73 27.08 2.62Q26.94 2.4 26.78 2.2Q26.08 1.36 24.97 0.85Q23.6 0.23 21.74 0.23L15.68 0.23L15.68 14.23L18.93 14.23L18.93 10.33L21.9 10.33ZM37.05 14.23L37.05 9.27L42.49 0.23L39.31 0.23L35.57 6.45L31.83 0.23L28.4 0.23L33.82 9.23L33.82 14.23L37.05 14.23ZM53.15 0.85Q51.78 0.23 49.92 0.23L43.86 0.23L43.86 14.23L47.11 14.23L47.11 10.37L49.92 10.37Q51.78 10.37 53.15 9.77Q54.23 9.29 54.91 8.48Q55.1 8.25 55.26 8.01Q55.37 7.84 55.46 7.67Q56 6.63 56 5.31Q56 3.91 55.4 2.85Q55.34 2.73 55.26 2.62Q55.12 2.4 54.96 2.2Q54.26 1.36 53.15 0.85ZM56.49 2.87L60.97 2.87L60.97 14.23L64.21 14.23L64.21 2.87L68.69 2.87L68.69 0.23L56.49 0.23L56.49 2.87ZM90.66 6.53L90.66 2.83L98 2.83L98 0.23L87.41 0.23L87.41 14.23L90.66 14.23L90.66 9.14L97.14 9.14L97.14 6.53L90.66 6.53ZM120.48 0.23L117.23 0.23L117.23 14.23L127.49 14.23L127.49 11.59L120.48 11.59L120.48 0.23ZM132.71 0.23L129.46 0.23L129.46 14.23L132.71 14.23L132.71 0.23ZM78.91 11.38Q78.1 11.71 77.17 11.71Q76.21 11.71 75.39 11.37Q75.15 11.27 74.92 11.14Q74.46 10.88 74.09 10.52Q73.66 10.1 73.35 9.56Q73.3 9.46 73.25 9.37Q72.78 8.42 72.78 7.23Q72.78 6.07 73.24 5.13Q73.29 5.02 73.35 4.91Q73.67 4.34 74.12 3.92Q74.48 3.58 74.92 3.33Q75.15 3.2 75.39 3.1Q76.21 2.75 77.17 2.75Q78.1 2.75 78.91 3.08Q79.16 3.19 79.4 3.33Q79.85 3.58 80.2 3.92Q80.66 4.34 80.97 4.91Q81.03 5.02 81.09 5.13Q81.55 6.07 81.55 7.23Q81.55 8.42 81.07 9.37Q81.03 9.46 80.97 9.56Q80.67 10.1 80.23 10.52Q79.86 10.88 79.4 11.14Q79.16 11.28 78.91 11.38ZM108.73 11.38Q107.92 11.71 106.99 11.71Q106.03 11.71 105.21 11.37Q104.97 11.27 104.75 11.14Q104.28 10.88 103.91 10.52Q103.48 10.1 103.17 9.56Q103.12 9.46 103.07 9.37Q102.6 8.42 102.6 7.23Q102.6 6.07 103.06 5.13Q103.11 5.02 103.17 4.91Q103.49 4.34 103.94 3.92Q104.3 3.58 104.75 3.33Q104.97 3.2 105.21 3.1Q106.03 2.75 106.99 2.75Q107.92 2.75 108.73 3.08Q108.98 3.19 109.22 3.33Q109.67 3.58 110.02 3.92Q110.48 4.34 110.8 4.91Q110.86 5.02 110.91 5.13Q111.37 6.07 111.37 7.23Q111.37 8.42 110.9 9.37Q110.85 9.46 110.8 9.56Q110.49 10.1 110.06 10.52Q109.68 10.88 109.22 11.14Q108.98 11.28 108.73 11.38ZM144.7 11.38Q143.89 11.71 142.96 11.71Q142 11.71 141.18 11.37Q140.94 11.27 140.72 11.14Q140.25 10.88 139.88 10.52Q139.45 10.1 139.14 9.56Q139.09 9.46 139.04 9.37Q138.57 8.42 138.57 7.23Q138.57 6.07 139.03 5.13Q139.08 5.02 139.14 4.91Q139.46 4.34 139.91 3.92Q140.27 3.58 140.72 3.33Q140.94 3.2 141.18 3.1Q142 2.75 142.96 2.75Q143.89 2.75 144.7 3.08Q144.95 3.19 145.19 3.33Q145.64 3.58 145.99 3.92Q146.45 4.34 146.77 4.91Q146.83 5.02 146.88 5.13Q147.34 6.07 147.34 7.23Q147.34 8.42 146.87 9.37Q146.82 9.46 146.77 9.56Q146.46 10.1 146.03 10.52Q145.65 10.88 145.19 11.14Q144.95 11.28 144.7 11.38ZM24.13 3.88Q24.54 4.45 24.54 5.31Q24.54 6.14 24.16 6.7Q24 6.93 23.78 7.11Q23.02 7.75 21.56 7.75L18.93 7.75L18.93 2.87L21.56 2.87Q23.02 2.87 23.78 3.51Q23.98 3.67 24.13 3.88ZM51.96 7.1Q51.2 7.73 49.74 7.73L47.11 7.73L47.11 2.87L49.74 2.87Q51.2 2.87 51.96 3.51Q52.16 3.67 52.31 3.88Q52.72 4.45 52.72 5.31Q52.72 6.14 52.33 6.7Q52.18 6.93 51.96 7.1Z" fill="#87CEEB" fill-opacity="1.000000" fill-rule="evenodd"/>
</svg>
